<svg width="90" height="80" viewBox="0 0 90 80" fill="none" xmlns="http://www.w3.org/2000/svg">
<path d="M29.7951 62.2802V52.286H30.9572V61.2411H35.3937V62.2802H29.7951ZM38.1734 54.788V62.2802H37.0387V54.788H38.1734ZM37.6197 51.9852C37.8066 51.9852 37.9661 52.0468 38.0982 52.1698C38.235 52.2883 38.3033 52.4751 38.3033 52.7303C38.3033 52.981 38.235 53.1678 38.0982 53.2909C37.9661 53.4139 37.8066 53.4755 37.6197 53.4755C37.4238 53.4755 37.2597 53.4139 37.1275 53.2909C36.9999 53.1678 36.9361 52.981 36.9361 52.7303C36.9361 52.4751 36.9999 52.2883 37.1275 52.1698C37.2597 52.0468 37.4238 51.9852 37.6197 51.9852ZM41.8076 51.6434V57.1669C41.8076 57.3492 41.8008 57.5725 41.7871 57.8368C41.7734 58.0966 41.762 58.3267 41.7529 58.5272H41.8008C41.8965 58.4087 42.0355 58.2333 42.2178 58.0009C42.4046 57.7684 42.5618 57.5816 42.6895 57.4403L45.1777 54.788H46.5107L43.4961 57.9872L46.7295 62.2802H45.3623L42.7168 58.7323L41.8076 59.5663V62.2802H40.6797V51.6434H41.8076ZM51.0199 54.6512C51.6579 54.6512 52.2048 54.7925 52.6605 55.0751C53.1163 55.3576 53.4649 55.7541 53.7064 56.2645C53.948 56.7704 54.0687 57.3628 54.0687 58.0419V58.746H48.8939C48.9076 59.6255 49.1264 60.2955 49.5502 60.7557C49.974 61.216 50.571 61.4462 51.3412 61.4462C51.8152 61.4462 52.2344 61.4029 52.599 61.3163C52.9636 61.2297 53.3419 61.1021 53.7338 60.9335V61.9315C53.3555 62.1001 52.9796 62.2232 52.6059 62.3007C52.2367 62.3781 51.7992 62.4169 51.2934 62.4169C50.5733 62.4169 49.9444 62.271 49.4066 61.9794C48.8734 61.6831 48.4587 61.2502 48.1625 60.6805C47.8663 60.1109 47.7182 59.4136 47.7182 58.5887C47.7182 57.7821 47.8526 57.0848 48.1215 56.4969C48.3949 55.9045 48.7777 55.4488 49.2699 55.1298C49.7667 54.8108 50.35 54.6512 51.0199 54.6512ZM51.0062 55.5809C50.4001 55.5809 49.9171 55.7792 49.557 56.1757C49.197 56.5721 48.9828 57.1259 48.9145 57.8368H52.8793C52.8747 57.3902 52.8041 56.9983 52.6674 56.661C52.5352 56.3192 52.3324 56.0549 52.059 55.868C51.7855 55.6766 51.4346 55.5809 51.0062 55.5809ZM60.9432 60.2294C60.9432 60.7079 60.8224 61.1112 60.5809 61.4393C60.3439 61.7629 60.0021 62.0067 59.5555 62.1708C59.1134 62.3348 58.5848 62.4169 57.9695 62.4169C57.4454 62.4169 56.992 62.3759 56.6092 62.2938C56.2264 62.2118 55.8914 62.0956 55.6043 61.9452V60.8993C55.9096 61.0497 56.2742 61.1864 56.698 61.3094C57.1219 61.4325 57.5548 61.494 57.9969 61.494C58.644 61.494 59.1134 61.3892 59.4051 61.1796C59.6967 60.9699 59.8426 60.6851 59.8426 60.3251C59.8426 60.12 59.7833 59.94 59.6648 59.785C59.5509 59.6255 59.3572 59.4729 59.0838 59.327C58.8103 59.1766 58.4321 59.0126 57.949 58.8348C57.4705 58.6525 57.0558 58.4725 56.7049 58.2948C56.3585 58.1125 56.0896 57.8915 55.8982 57.6317C55.7114 57.3719 55.618 57.0347 55.618 56.62C55.618 55.9865 55.8732 55.5012 56.3836 55.1639C56.8986 54.8221 57.573 54.6512 58.407 54.6512C58.8582 54.6512 59.2797 54.6968 59.6717 54.788C60.0682 54.8746 60.4373 54.993 60.7791 55.1434L60.3963 56.0526C60.0864 55.9205 59.756 55.8088 59.4051 55.7177C59.0542 55.6265 58.6964 55.5809 58.3318 55.5809C57.8077 55.5809 57.4044 55.6675 57.1219 55.8407C56.8439 56.0139 56.7049 56.2509 56.7049 56.5516C56.7049 56.7841 56.7687 56.9755 56.8963 57.1259C57.0284 57.2762 57.2381 57.4175 57.5252 57.5497C57.8123 57.6818 58.1906 57.8368 58.66 58.0145C59.1294 58.1877 59.535 58.3677 59.8768 58.5546C60.2186 58.7369 60.4806 58.9602 60.6629 59.2245C60.8497 59.4843 60.9432 59.8192 60.9432 60.2294Z" fill="#121212"/>
<path d="M37.9618 16C36.0263 16 34.302 16.8094 33 18.0762C31.7331 19.3431 30.9237 21.0674 30.9237 23.0381C30.9237 24.9736 31.7331 26.6979 33 28L45 40L57 28C58.2668 26.7331 59.0762 25.0088 59.0762 23.0381C59.0762 21.1026 58.2668 19.3783 57 18.0762C55.7331 16.8094 54.0087 16 52.0381 16C50.1026 16 48.3783 16.8094 47.0762 18.0762C45.8093 19.3431 45 21.0674 45 23.0381C45 21.1026 44.1906 19.3783 42.9237 18.0762C41.6568 16.8094 39.9325 16 37.9618 16Z" fill="black"/>
</svg>
