<svg width="64" height="32" viewBox="0 0 64 32" fill="none" xmlns="http://www.w3.org/2000/svg">
<path d="M23.9618 4C22.0263 4 20.302 4.80938 19 6.07625C17.7331 7.34311 16.9237 9.06745 16.9237 11.0381C16.9237 12.9736 17.7331 14.6979 19 16L31 28L43 16C44.2668 14.7331 45.0762 13.0088 45.0762 11.0381C45.0762 9.10264 44.2668 7.3783 43 6.07625C41.7331 4.80938 40.0087 4 38.0381 4C36.1026 4 34.3783 4.80938 33.0762 6.07625C31.8093 7.34311 31 9.06745 31 11.0381C31 9.10264 30.1906 7.3783 28.9237 6.07625C27.6568 4.80938 25.9325 4 23.9618 4Z" fill="black"/>
</svg>
