<svg width="64" height="32" viewBox="0 0 64 32" fill="none" xmlns="http://www.w3.org/2000/svg">
<rect width="64" height="32" rx="16" fill="#121212"/>
<path d="M30.1978 23.3322V18.3307H34.1978V23.3322C34.1978 23.8823 34.6478 24.3325 35.1978 24.3325H38.1977C38.7477 24.3325 39.1977 23.8823 39.1977 23.3322V16.3301H40.8977C41.3577 16.3301 41.5777 15.7599 41.2277 15.4598L32.8678 7.92756C32.4878 7.58746 31.9078 7.58746 31.5278 7.92756L23.1679 15.4598C22.8279 15.7599 23.0379 16.3301 23.4978 16.3301H25.1978V23.3322C25.1978 23.8823 25.6478 24.3325 26.1978 24.3325H29.1978C29.7478 24.3325 30.1978 23.8823 30.1978 23.3322Z" fill="#F2F2F2"/>
</svg>
