<svg width="90" height="80" viewBox="0 0 90 80" fill="none" xmlns="http://www.w3.org/2000/svg">
<rect x="13" y="12" width="64" height="32" rx="16" fill="#121212"/>
<path d="M43.1978 35.3322V30.3307H47.1978V35.3322C47.1978 35.8823 47.6478 36.3325 48.1978 36.3325H51.1977C51.7477 36.3325 52.1977 35.8823 52.1977 35.3322V28.3301H53.8977C54.3577 28.3301 54.5777 27.7599 54.2277 27.4598L45.8678 19.9276C45.4878 19.5875 44.9078 19.5875 44.5278 19.9276L36.1679 27.4598C35.8279 27.7599 36.0379 28.3301 36.4978 28.3301H38.1978V35.3322C38.1978 35.8823 38.6478 36.3325 39.1978 36.3325H42.1978C42.7478 36.3325 43.1978 35.8823 43.1978 35.3322Z" fill="#F2F2F2"/>
<path d="M33.7963 63H32.1625V58.4883H27.5551V63H25.9145V53.0059H27.5551V57.0938H32.1625V53.0059H33.7963V63ZM43.077 59.1992C43.077 59.8281 42.9949 60.3864 42.8309 60.874C42.6668 61.3617 42.4275 61.7741 42.1131 62.1113C41.7986 62.444 41.4204 62.6992 40.9783 62.877C40.5363 63.0501 40.0372 63.1367 39.4813 63.1367C38.9617 63.1367 38.4855 63.0501 38.0525 62.877C37.6196 62.6992 37.2436 62.444 36.9246 62.1113C36.6102 61.7741 36.3663 61.3617 36.1932 60.874C36.02 60.3864 35.9334 59.8281 35.9334 59.1992C35.9334 58.3652 36.077 57.6589 36.3641 57.0801C36.6557 56.4967 37.0704 56.0524 37.6082 55.7471C38.146 55.4417 38.7863 55.2891 39.5291 55.2891C40.2264 55.2891 40.8416 55.4417 41.3748 55.7471C41.908 56.0524 42.325 56.4967 42.6258 57.0801C42.9266 57.6634 43.077 58.3698 43.077 59.1992ZM37.5877 59.1992C37.5877 59.7507 37.6538 60.2223 37.7859 60.6143C37.9227 61.0062 38.1323 61.307 38.4148 61.5166C38.6974 61.7217 39.062 61.8242 39.5086 61.8242C39.9552 61.8242 40.3198 61.7217 40.6023 61.5166C40.8849 61.307 41.0923 61.0062 41.2244 60.6143C41.3566 60.2223 41.4227 59.7507 41.4227 59.1992C41.4227 58.6478 41.3566 58.1807 41.2244 57.7979C41.0923 57.4105 40.8849 57.1165 40.6023 56.916C40.3198 56.7109 39.9529 56.6084 39.5018 56.6084C38.8364 56.6084 38.351 56.8317 38.0457 57.2783C37.7404 57.7249 37.5877 58.3652 37.5877 59.1992ZM53.5744 55.2891C54.4221 55.2891 55.0601 55.5078 55.4885 55.9453C55.9214 56.3828 56.1379 57.0846 56.1379 58.0508V63H54.5314V58.3379C54.5314 57.7637 54.4198 57.3307 54.1965 57.0391C53.9732 56.7474 53.6337 56.6016 53.1779 56.6016C52.5399 56.6016 52.0796 56.8066 51.7971 57.2168C51.5191 57.6224 51.3801 58.2126 51.3801 58.9873V63H49.7736V58.3379C49.7736 57.9551 49.7235 57.6361 49.6232 57.3809C49.5275 57.1211 49.3794 56.9274 49.1789 56.7998C48.9784 56.6676 48.7255 56.6016 48.4201 56.6016C47.9781 56.6016 47.6249 56.7018 47.3605 56.9023C47.1008 57.1029 46.9139 57.3991 46.8 57.791C46.6861 58.1784 46.6291 58.6546 46.6291 59.2197V63H45.0227V55.4326H46.2736L46.4992 56.4512H46.5881C46.743 56.1868 46.9344 55.9704 47.1623 55.8018C47.3947 55.6286 47.6522 55.501 47.9348 55.4189C48.2173 55.3324 48.5113 55.2891 48.8166 55.2891C49.3817 55.2891 49.8579 55.3893 50.2453 55.5898C50.6327 55.7858 50.9221 56.0866 51.1135 56.4922H51.2365C51.4735 56.082 51.8039 55.779 52.2277 55.583C52.6516 55.387 53.1005 55.2891 53.5744 55.2891ZM61.4947 55.2891C62.1692 55.2891 62.748 55.4281 63.2311 55.7061C63.7141 55.984 64.0855 56.3783 64.3453 56.8887C64.6051 57.3991 64.735 58.0098 64.735 58.7207V59.582H59.6832C59.7014 60.3158 59.8974 60.8809 60.2711 61.2773C60.6494 61.6738 61.178 61.8721 61.857 61.8721C62.3401 61.8721 62.773 61.8265 63.1559 61.7354C63.5432 61.6396 63.942 61.5007 64.3521 61.3184V62.624C63.9739 62.8018 63.5888 62.9316 63.1969 63.0137C62.8049 63.0957 62.3355 63.1367 61.7887 63.1367C61.0458 63.1367 60.3919 62.9932 59.8268 62.7061C59.2662 62.4144 58.8264 61.9814 58.5074 61.4072C58.193 60.833 58.0357 60.1198 58.0357 59.2676C58.0357 58.4199 58.1793 57.6999 58.4664 57.1074C58.7535 56.515 59.1568 56.0638 59.6764 55.7539C60.1959 55.444 60.802 55.2891 61.4947 55.2891ZM61.4947 56.499C60.9889 56.499 60.5787 56.6631 60.2643 56.9912C59.9544 57.3193 59.7721 57.8001 59.7174 58.4336H63.1627C63.1581 58.0553 63.0943 57.7204 62.9713 57.4287C62.8528 57.137 62.6705 56.9092 62.4244 56.7451C62.1829 56.5811 61.873 56.499 61.4947 56.499Z" fill="#121212"/>
</svg>
