<svg width="24" height="24" viewBox="0 0 24 24" fill="none" xmlns="http://www.w3.org/2000/svg">
<path d="M10.65 2.93996L6.93 9.01996C6.52 9.67996 7 10.54 7.78 10.54H15.21C15.99 10.54 16.47 9.67996 16.06 9.01996L12.35 2.93996C11.96 2.29996 11.04 2.29996 10.65 2.93996Z" fill="#121212"/>
<path d="M17 21.54C19.4853 21.54 21.5 19.5252 21.5 17.04C21.5 14.5547 19.4853 12.54 17 12.54C14.5147 12.54 12.5 14.5547 12.5 17.04C12.5 19.5252 14.5147 21.54 17 21.54Z" fill="#121212"/>
<path d="M3.5 21.04H9.5C10.05 21.04 10.5 20.59 10.5 20.04V14.04C10.5 13.49 10.05 13.04 9.5 13.04H3.5C2.95 13.04 2.5 13.49 2.5 14.04V20.04C2.5 20.59 2.95 21.04 3.5 21.04Z" fill="#121212"/>
</svg>
