<svg width="90" height="80" viewBox="0 0 90 80" fill="none" xmlns="http://www.w3.org/2000/svg">
<path d="M36 21V35C36 36.1 36.89 37 38 37H52C53.1 37 54 36.1 54 35V21C54 19.9 53.1 19 52 19H38C36.89 19 36 19.9 36 21ZM48 25C48 26.66 46.66 28 45 28C43.34 28 42 26.66 42 25C42 23.34 43.34 22 45 22C46.66 22 48 23.34 48 25ZM39 33C39 31 43 29.9 45 29.9C47 29.9 51 31 51 33V34H39V33Z" fill="#121212"/>
<path d="M25.9012 63L24.6707 59.8281H20.6648L19.4412 63H18.2654L22.1756 52.9648H23.2215L27.1043 63H25.9012ZM24.3221 58.7959L23.1531 55.6445C23.1258 55.5625 23.0802 55.4281 23.0164 55.2412C22.9572 55.0544 22.8956 54.8607 22.8318 54.6602C22.768 54.4596 22.7156 54.2979 22.6746 54.1748C22.629 54.3617 22.5789 54.5485 22.5242 54.7354C22.4741 54.9176 22.424 55.0885 22.3738 55.248C22.3237 55.403 22.2804 55.5352 22.2439 55.6445L21.0545 58.7959H24.3221ZM31.4221 63.1367C30.7476 63.1367 30.1529 62.9977 29.6379 62.7197C29.1229 62.4417 28.7219 62.0179 28.4348 61.4482C28.1477 60.8786 28.0041 60.1608 28.0041 59.2949C28.0041 58.388 28.1545 57.6475 28.4553 57.0732C28.7606 56.4945 29.1799 56.0661 29.7131 55.7881C30.2463 55.5101 30.8524 55.3711 31.5314 55.3711C31.9051 55.3711 32.2652 55.4098 32.6115 55.4873C32.9624 55.5602 33.2495 55.6536 33.4729 55.7676L33.1311 56.7178C32.9032 56.6266 32.6389 56.5446 32.3381 56.4717C32.0419 56.3988 31.7639 56.3623 31.5041 56.3623C30.9846 56.3623 30.5516 56.474 30.2053 56.6973C29.8635 56.9206 29.606 57.2487 29.4328 57.6816C29.2642 58.1146 29.1799 58.6478 29.1799 59.2812C29.1799 59.8874 29.2619 60.4046 29.426 60.833C29.5946 61.2614 29.843 61.5895 30.1711 61.8174C30.5038 62.0407 30.9185 62.1523 31.4152 62.1523C31.8117 62.1523 32.1695 62.1113 32.4885 62.0293C32.8075 61.9427 33.0969 61.8424 33.3566 61.7285V62.7402C33.106 62.8678 32.8257 62.9658 32.5158 63.0342C32.2105 63.1025 31.8459 63.1367 31.4221 63.1367ZM38.235 63.1367C37.5605 63.1367 36.9658 62.9977 36.4508 62.7197C35.9358 62.4417 35.5348 62.0179 35.2477 61.4482C34.9605 60.8786 34.817 60.1608 34.817 59.2949C34.817 58.388 34.9674 57.6475 35.2682 57.0732C35.5735 56.4945 35.9928 56.0661 36.526 55.7881C37.0592 55.5101 37.6653 55.3711 38.3443 55.3711C38.718 55.3711 39.0781 55.4098 39.4244 55.4873C39.7753 55.5602 40.0624 55.6536 40.2857 55.7676L39.9439 56.7178C39.7161 56.6266 39.4518 56.5446 39.151 56.4717C38.8548 56.3988 38.5768 56.3623 38.317 56.3623C37.7975 56.3623 37.3645 56.474 37.0182 56.6973C36.6764 56.9206 36.4189 57.2487 36.2457 57.6816C36.0771 58.1146 35.9928 58.6478 35.9928 59.2812C35.9928 59.8874 36.0748 60.4046 36.2389 60.833C36.4075 61.2614 36.6559 61.5895 36.984 61.8174C37.3167 62.0407 37.7314 62.1523 38.2281 62.1523C38.6246 62.1523 38.9824 62.1113 39.3014 62.0293C39.6204 61.9427 39.9098 61.8424 40.1695 61.7285V62.7402C39.9189 62.8678 39.6386 62.9658 39.3287 63.0342C39.0234 63.1025 38.6588 63.1367 38.235 63.1367ZM48.5068 59.2402C48.5068 59.8555 48.4271 60.4046 48.2676 60.8877C48.1081 61.3708 47.8779 61.7786 47.5771 62.1113C47.2764 62.444 46.9118 62.6992 46.4834 62.877C46.0596 63.0501 45.5788 63.1367 45.041 63.1367C44.5397 63.1367 44.0794 63.0501 43.6602 62.877C43.2454 62.6992 42.8854 62.444 42.5801 62.1113C42.2793 61.7786 42.0446 61.3708 41.876 60.8877C41.7119 60.4046 41.6299 59.8555 41.6299 59.2402C41.6299 58.4199 41.7689 57.7227 42.0469 57.1484C42.3249 56.5697 42.7214 56.1299 43.2363 55.8291C43.7559 55.5238 44.3734 55.3711 45.0889 55.3711C45.7725 55.3711 46.3695 55.5238 46.8799 55.8291C47.3949 56.1344 47.7936 56.5765 48.0762 57.1553C48.3633 57.7295 48.5068 58.4245 48.5068 59.2402ZM42.8057 59.2402C42.8057 59.8418 42.8854 60.3636 43.0449 60.8057C43.2044 61.2477 43.4505 61.5895 43.7832 61.8311C44.1159 62.0726 44.5443 62.1934 45.0684 62.1934C45.5879 62.1934 46.014 62.0726 46.3467 61.8311C46.6839 61.5895 46.9323 61.2477 47.0918 60.8057C47.2513 60.3636 47.3311 59.8418 47.3311 59.2402C47.3311 58.6432 47.2513 58.1283 47.0918 57.6953C46.9323 57.2578 46.6862 56.9206 46.3535 56.6836C46.0208 56.4466 45.5902 56.3281 45.0615 56.3281C44.2822 56.3281 43.7103 56.5856 43.3457 57.1006C42.9857 57.6156 42.8057 58.3288 42.8057 59.2402ZM56.7553 55.5078V63H55.8256L55.6615 61.9473H55.6C55.4451 62.207 55.2445 62.4258 54.9984 62.6035C54.7523 62.7812 54.4743 62.9134 54.1645 63C53.8591 63.0911 53.5333 63.1367 53.1869 63.1367C52.5945 63.1367 52.0977 63.041 51.6967 62.8496C51.2956 62.6582 50.9926 62.362 50.7875 61.9609C50.587 61.5599 50.4867 61.0449 50.4867 60.416V55.5078H51.6352V60.334C51.6352 60.9583 51.7764 61.4255 52.059 61.7354C52.3415 62.0407 52.7722 62.1934 53.351 62.1934C53.907 62.1934 54.349 62.0885 54.6771 61.8789C55.0098 61.6693 55.2491 61.3617 55.3949 60.9561C55.5408 60.5459 55.6137 60.0446 55.6137 59.4521V55.5078H56.7553ZM62.8025 55.3711C63.6912 55.3711 64.3634 55.5898 64.8191 56.0273C65.2749 56.4603 65.5027 57.1576 65.5027 58.1191V63H64.3816V58.1943C64.3816 57.57 64.2381 57.1029 63.951 56.793C63.6684 56.4831 63.2332 56.3281 62.6453 56.3281C61.8159 56.3281 61.2326 56.5628 60.8953 57.0322C60.5581 57.5016 60.3895 58.1829 60.3895 59.0762V63H59.2547V55.5078H60.1707L60.3416 56.5879H60.4031C60.5626 56.3236 60.7654 56.1025 61.0115 55.9248C61.2576 55.7425 61.5333 55.6058 61.8387 55.5146C62.144 55.4189 62.4653 55.3711 62.8025 55.3711ZM70.3605 62.207C70.5474 62.207 70.7388 62.1911 70.9348 62.1592C71.1307 62.1273 71.2902 62.0885 71.4133 62.043V62.9248C71.2811 62.984 71.0966 63.0342 70.8596 63.0752C70.6272 63.1162 70.3993 63.1367 70.176 63.1367C69.7795 63.1367 69.4195 63.0684 69.0959 62.9316C68.7723 62.7904 68.5126 62.5534 68.3166 62.2207C68.1252 61.888 68.0295 61.4277 68.0295 60.8398V56.3965H66.9631V55.8428L68.0363 55.3984L68.4875 53.7715H69.1711V55.5078H71.3654V56.3965H69.1711V60.8057C69.1711 61.2751 69.2782 61.626 69.4924 61.8584C69.7111 62.0908 70.0005 62.207 70.3605 62.207Z" fill="#121212"/>
</svg>
