<svg width="30" height="24" viewBox="0 0 30 24" fill="none" xmlns="http://www.w3.org/2000/svg">
<path d="M7.96183 0C6.02634 0 4.302 0.809384 2.99995 2.07625C1.73309 3.34311 0.923706 5.06745 0.923706 7.03812C0.923706 8.97361 1.73309 10.6979 2.99995 12L15 24L27 12C28.2668 10.7331 29.0762 9.0088 29.0762 7.03812C29.0762 5.10264 28.2668 3.3783 27 2.07625C25.7331 0.809384 24.0087 0 22.0381 0C20.1026 0 18.3783 0.809384 17.0762 2.07625C15.8093 3.34311 15 5.06745 15 7.03812C15 5.10264 14.1906 3.3783 12.9237 2.07625C11.6568 0.809384 9.9325 0 7.96183 0Z" fill="black"/>
</svg>
