<svg width="90" height="80" viewBox="0 0 90 80" fill="none" xmlns="http://www.w3.org/2000/svg">
<rect x="13" y="12" width="64" height="32" rx="16" fill="#121212"/>
<path d="M36 21V35C36 36.1 36.89 37 38 37H52C53.1 37 54 36.1 54 35V21C54 19.9 53.1 19 52 19H38C36.89 19 36 19.9 36 21ZM48 25C48 26.66 46.66 28 45 28C43.34 28 42 26.66 42 25C42 23.34 43.34 22 45 22C46.66 22 48 23.34 48 25ZM39 33C39 31 43 29.9 45 29.9C47 29.9 51 31 51 33V34H39V33Z" fill="#F2F2F2"/>
<path d="M24.6775 63L23.7 60.2246H19.8787L18.9012 63H17.1717L20.8904 52.9648H22.7088L26.4207 63H24.6775ZM23.2762 58.8164L22.326 56.082C22.2895 55.9635 22.2371 55.7972 22.1688 55.583C22.1004 55.3643 22.032 55.1432 21.9637 54.9199C21.8953 54.6921 21.8383 54.5007 21.7928 54.3457C21.7472 54.5326 21.6902 54.7422 21.6219 54.9746C21.5581 55.2025 21.4943 55.4167 21.4305 55.6172C21.3712 55.8177 21.3257 55.9727 21.2938 56.082L20.3367 58.8164H23.2762ZM30.7248 63.1367C30.0093 63.1367 29.3895 62.9977 28.8654 62.7197C28.3413 62.4417 27.938 62.0156 27.6555 61.4414C27.3729 60.8672 27.2316 60.138 27.2316 59.2539C27.2316 58.3333 27.3866 57.5814 27.6965 56.998C28.0064 56.4147 28.4348 55.984 28.9816 55.7061C29.5331 55.4281 30.1643 55.2891 30.8752 55.2891C31.3264 55.2891 31.7342 55.3346 32.0988 55.4258C32.468 55.5124 32.7801 55.6195 33.0354 55.7471L32.5568 57.0322C32.2788 56.9183 31.994 56.8226 31.7023 56.7451C31.4107 56.6676 31.1304 56.6289 30.8615 56.6289C30.4195 56.6289 30.0503 56.7269 29.7541 56.9229C29.4624 57.1188 29.2437 57.4105 29.0979 57.7979C28.9566 58.1852 28.8859 58.666 28.8859 59.2402C28.8859 59.7962 28.9589 60.2656 29.1047 60.6484C29.2505 61.0267 29.467 61.3138 29.7541 61.5098C30.0412 61.7012 30.3944 61.7969 30.8137 61.7969C31.2284 61.7969 31.5998 61.7467 31.9279 61.6465C32.2561 61.5462 32.566 61.4163 32.8576 61.2568V62.6514C32.5705 62.8154 32.2629 62.9362 31.9348 63.0137C31.6066 63.0957 31.2033 63.1367 30.7248 63.1367ZM37.7838 63.1367C37.0683 63.1367 36.4485 62.9977 35.9244 62.7197C35.4003 62.4417 34.997 62.0156 34.7145 61.4414C34.4319 60.8672 34.2906 60.138 34.2906 59.2539C34.2906 58.3333 34.4456 57.5814 34.7555 56.998C35.0654 56.4147 35.4938 55.984 36.0406 55.7061C36.5921 55.4281 37.2232 55.2891 37.9342 55.2891C38.3854 55.2891 38.7932 55.3346 39.1578 55.4258C39.527 55.5124 39.8391 55.6195 40.0943 55.7471L39.6158 57.0322C39.3378 56.9183 39.053 56.8226 38.7613 56.7451C38.4697 56.6676 38.1894 56.6289 37.9205 56.6289C37.4785 56.6289 37.1093 56.7269 36.8131 56.9229C36.5214 57.1188 36.3027 57.4105 36.1568 57.7979C36.0156 58.1852 35.9449 58.666 35.9449 59.2402C35.9449 59.7962 36.0178 60.2656 36.1637 60.6484C36.3095 61.0267 36.526 61.3138 36.8131 61.5098C37.1002 61.7012 37.4534 61.7969 37.8727 61.7969C38.2874 61.7969 38.6588 61.7467 38.9869 61.6465C39.315 61.5462 39.6249 61.4163 39.9166 61.2568V62.6514C39.6295 62.8154 39.3219 62.9362 38.9938 63.0137C38.6656 63.0957 38.2623 63.1367 37.7838 63.1367ZM48.4932 59.1992C48.4932 59.8281 48.4111 60.3864 48.2471 60.874C48.083 61.3617 47.8438 61.7741 47.5293 62.1113C47.2148 62.444 46.8366 62.6992 46.3945 62.877C45.9525 63.0501 45.4535 63.1367 44.8975 63.1367C44.3779 63.1367 43.9017 63.0501 43.4688 62.877C43.0358 62.6992 42.6598 62.444 42.3408 62.1113C42.0264 61.7741 41.7826 61.3617 41.6094 60.874C41.4362 60.3864 41.3496 59.8281 41.3496 59.1992C41.3496 58.3652 41.4932 57.6589 41.7803 57.0801C42.0719 56.4967 42.4867 56.0524 43.0244 55.7471C43.5622 55.4417 44.2025 55.2891 44.9453 55.2891C45.6426 55.2891 46.2578 55.4417 46.791 55.7471C47.3242 56.0524 47.7412 56.4967 48.042 57.0801C48.3428 57.6634 48.4932 58.3698 48.4932 59.1992ZM43.0039 59.1992C43.0039 59.7507 43.07 60.2223 43.2021 60.6143C43.3389 61.0062 43.5485 61.307 43.8311 61.5166C44.1136 61.7217 44.4782 61.8242 44.9248 61.8242C45.3714 61.8242 45.736 61.7217 46.0186 61.5166C46.3011 61.307 46.5085 61.0062 46.6406 60.6143C46.7728 60.2223 46.8389 59.7507 46.8389 59.1992C46.8389 58.6478 46.7728 58.1807 46.6406 57.7979C46.5085 57.4105 46.3011 57.1165 46.0186 56.916C45.736 56.7109 45.3691 56.6084 44.918 56.6084C44.2526 56.6084 43.7673 56.8317 43.4619 57.2783C43.1566 57.7249 43.0039 58.3652 43.0039 59.1992ZM57.0355 55.4326V63H55.7709L55.5522 61.9814H55.4633C55.3038 62.2412 55.101 62.4577 54.8549 62.6309C54.6088 62.7995 54.3354 62.9248 54.0346 63.0068C53.7338 63.0934 53.4171 63.1367 53.0844 63.1367C52.5147 63.1367 52.0271 63.041 51.6215 62.8496C51.2204 62.6536 50.9128 62.3529 50.6986 61.9473C50.4844 61.5417 50.3773 61.0176 50.3773 60.375V55.4326H51.9906V60.0742C51.9906 60.6621 52.1091 61.1019 52.3461 61.3936C52.5876 61.6852 52.9613 61.8311 53.4672 61.8311C53.9548 61.8311 54.3422 61.7308 54.6293 61.5303C54.9164 61.3298 55.1192 61.0335 55.2377 60.6416C55.3607 60.2497 55.4223 59.7689 55.4223 59.1992V55.4326H57.0355ZM63.3836 55.2891C64.2358 55.2891 64.8989 55.5101 65.3729 55.9521C65.8514 56.3896 66.0906 57.0938 66.0906 58.0645V63H64.4842V58.3652C64.4842 57.7773 64.3634 57.3376 64.1219 57.0459C63.8803 56.7497 63.5066 56.6016 63.0008 56.6016C62.2671 56.6016 61.7566 56.8271 61.4695 57.2783C61.187 57.7295 61.0457 58.3835 61.0457 59.2402V63H59.4393V55.4326H60.6902L60.9158 56.458H61.0047C61.1688 56.1937 61.3716 55.9772 61.6131 55.8086C61.8592 55.6354 62.1326 55.5055 62.4334 55.4189C62.7387 55.3324 63.0555 55.2891 63.3836 55.2891ZM71.2561 61.8379C71.4657 61.8379 71.673 61.8197 71.8781 61.7832C72.0832 61.7422 72.2701 61.6943 72.4387 61.6396V62.8564C72.2609 62.9339 72.0308 63 71.7482 63.0547C71.4657 63.1094 71.1717 63.1367 70.8664 63.1367C70.438 63.1367 70.0529 63.0661 69.7111 62.9248C69.3693 62.779 69.0982 62.5306 68.8977 62.1797C68.6971 61.8288 68.5969 61.3434 68.5969 60.7236V56.6562H67.5647V55.9385L68.6721 55.3711L69.1984 53.751H70.2102V55.4326H72.3772V56.6562H70.2102V60.7031C70.2102 61.0859 70.3059 61.3708 70.4973 61.5576C70.6887 61.7445 70.9416 61.8379 71.2561 61.8379Z" fill="#121212"/>
</svg>
