<svg width="90" height="80" viewBox="0 0 90 80" fill="none" xmlns="http://www.w3.org/2000/svg">
<path d="M43.1978 35.3322V30.3307H47.1978V35.3322C47.1978 35.8823 47.6478 36.3325 48.1978 36.3325H51.1977C51.7477 36.3325 52.1977 35.8823 52.1977 35.3322V28.3301H53.8977C54.3577 28.3301 54.5777 27.7599 54.2277 27.4598L45.8678 19.9276C45.4878 19.5875 44.9078 19.5875 44.5278 19.9276L36.1679 27.4598C35.8279 27.7599 36.0379 28.3301 36.4978 28.3301H38.1978V35.3322C38.1978 35.8823 38.6478 36.3325 39.1978 36.3325H42.1978C42.7478 36.3325 43.1978 35.8823 43.1978 35.3322Z" fill="#121212"/>
<path d="M34.0082 63H32.8461V58.29H27.5961V63H26.434V53.0059H27.5961V57.2646H32.8461V53.0059H34.0082V63ZM43.1453 59.2402C43.1453 59.8555 43.0656 60.4046 42.9061 60.8877C42.7466 61.3708 42.5164 61.7786 42.2156 62.1113C41.9148 62.444 41.5503 62.6992 41.1219 62.877C40.698 63.0501 40.2173 63.1367 39.6795 63.1367C39.1782 63.1367 38.7179 63.0501 38.2986 62.877C37.8839 62.6992 37.5239 62.444 37.2186 62.1113C36.9178 61.7786 36.6831 61.3708 36.5145 60.8877C36.3504 60.4046 36.2684 59.8555 36.2684 59.2402C36.2684 58.4199 36.4074 57.7227 36.6854 57.1484C36.9633 56.5697 37.3598 56.1299 37.8748 55.8291C38.3943 55.5238 39.0118 55.3711 39.7273 55.3711C40.4109 55.3711 41.0079 55.5238 41.5184 55.8291C42.0333 56.1344 42.4321 56.5765 42.7146 57.1553C43.0018 57.7295 43.1453 58.4245 43.1453 59.2402ZM37.4441 59.2402C37.4441 59.8418 37.5239 60.3636 37.6834 60.8057C37.8429 61.2477 38.089 61.5895 38.4217 61.8311C38.7544 62.0726 39.1827 62.1934 39.7068 62.1934C40.2264 62.1934 40.6525 62.0726 40.9852 61.8311C41.3224 61.5895 41.5708 61.2477 41.7303 60.8057C41.8898 60.3636 41.9695 59.8418 41.9695 59.2402C41.9695 58.6432 41.8898 58.1283 41.7303 57.6953C41.5708 57.2578 41.3247 56.9206 40.992 56.6836C40.6593 56.4466 40.2286 56.3281 39.7 56.3281C38.9207 56.3281 38.3488 56.5856 37.9842 57.1006C37.6242 57.6156 37.4441 58.3288 37.4441 59.2402ZM53.342 55.3711C54.1669 55.3711 54.7889 55.5876 55.2082 56.0205C55.6275 56.4489 55.8371 57.1393 55.8371 58.0918V63H54.716V58.1465C54.716 57.5404 54.5839 57.0869 54.3195 56.7861C54.0598 56.4808 53.6724 56.3281 53.1574 56.3281C52.4328 56.3281 51.9064 56.5378 51.5783 56.957C51.2502 57.3763 51.0861 57.9938 51.0861 58.8096V63H49.9582V58.1465C49.9582 57.7409 49.899 57.4036 49.7805 57.1348C49.6665 56.8659 49.4934 56.6654 49.2609 56.5332C49.0331 56.3965 48.7437 56.3281 48.3928 56.3281C47.896 56.3281 47.4973 56.4307 47.1965 56.6357C46.8957 56.8408 46.677 57.1462 46.5402 57.5518C46.4081 57.9528 46.342 58.4473 46.342 59.0352V63H45.2072V55.5078H46.1232L46.2941 56.5674H46.3557C46.5061 56.3076 46.6952 56.0889 46.923 55.9111C47.1509 55.7334 47.4061 55.599 47.6887 55.5078C47.9712 55.4167 48.272 55.3711 48.591 55.3711C49.1607 55.3711 49.6369 55.4782 50.0197 55.6924C50.4071 55.902 50.6874 56.2233 50.8605 56.6562H50.9221C51.1682 56.2233 51.5054 55.902 51.9338 55.6924C52.3622 55.4782 52.8316 55.3711 53.342 55.3711ZM61.1529 55.3711C61.791 55.3711 62.3378 55.5124 62.7936 55.7949C63.2493 56.0775 63.5979 56.474 63.8395 56.9844C64.081 57.4902 64.2018 58.0827 64.2018 58.7617V59.4658H59.027C59.0406 60.3454 59.2594 61.0153 59.6832 61.4756C60.107 61.9359 60.704 62.166 61.4742 62.166C61.9482 62.166 62.3674 62.1227 62.732 62.0361C63.0966 61.9495 63.4749 61.8219 63.8668 61.6533V62.6514C63.4885 62.82 63.1126 62.943 62.7389 63.0205C62.3697 63.098 61.9322 63.1367 61.4264 63.1367C60.7063 63.1367 60.0774 62.9909 59.5396 62.6992C59.0064 62.403 58.5917 61.9701 58.2955 61.4004C57.9993 60.8307 57.8512 60.1335 57.8512 59.3086C57.8512 58.502 57.9856 57.8047 58.2545 57.2168C58.5279 56.6243 58.9107 56.1686 59.4029 55.8496C59.8997 55.5306 60.483 55.3711 61.1529 55.3711ZM61.1393 56.3008C60.5331 56.3008 60.0501 56.499 59.69 56.8955C59.33 57.292 59.1158 57.8457 59.0475 58.5566H63.0123C63.0077 58.11 62.9371 57.7181 62.8004 57.3809C62.6682 57.0391 62.4654 56.7747 62.192 56.5879C61.9186 56.3965 61.5676 56.3008 61.1393 56.3008Z" fill="#121212"/>
</svg>
