<svg width="90" height="80" viewBox="0 0 90 80" fill="none" xmlns="http://www.w3.org/2000/svg">
<path d="M15.552 53.8877C15.0005 53.8877 14.5038 53.9834 14.0617 54.1748C13.6242 54.3617 13.2505 54.6351 12.9406 54.9951C12.6353 55.3506 12.4006 55.7812 12.2365 56.2871C12.0725 56.793 11.9904 57.3626 11.9904 57.9961C11.9904 58.8346 12.1203 59.5638 12.3801 60.1836C12.6444 60.7988 13.0363 61.2751 13.5559 61.6123C14.0799 61.9495 14.7339 62.1182 15.5178 62.1182C15.9644 62.1182 16.3837 62.0817 16.7756 62.0088C17.1721 61.9313 17.5572 61.8356 17.9309 61.7217V62.7334C17.5663 62.8701 17.1835 62.9704 16.7824 63.0342C16.3814 63.1025 15.9051 63.1367 15.3537 63.1367C14.3374 63.1367 13.4875 62.9271 12.8039 62.5078C12.1249 62.084 11.6145 61.487 11.2727 60.7168C10.9354 59.9466 10.7668 59.0374 10.7668 57.9893C10.7668 57.2327 10.8716 56.5423 11.0812 55.918C11.2954 55.2891 11.6053 54.7467 12.0109 54.291C12.4211 53.8353 12.9224 53.4844 13.5148 53.2383C14.1118 52.9876 14.7954 52.8623 15.5656 52.8623C16.0715 52.8623 16.5591 52.9124 17.0285 53.0127C17.4979 53.113 17.9217 53.2565 18.3 53.4434L17.8352 54.4277C17.5161 54.2819 17.1652 54.1566 16.7824 54.0518C16.4042 53.9424 15.994 53.8877 15.552 53.8877ZM22.8297 55.3848C23.7229 55.3848 24.386 55.5853 24.8189 55.9863C25.2519 56.3874 25.4684 57.0277 25.4684 57.9072V63H24.6412L24.4225 61.8926H24.3678C24.1581 62.166 23.9394 62.3962 23.7115 62.583C23.4837 62.7653 23.2193 62.9043 22.9186 63C22.6223 63.0911 22.2577 63.1367 21.8248 63.1367C21.3691 63.1367 20.9635 63.057 20.608 62.8975C20.2571 62.738 19.9791 62.4964 19.774 62.1729C19.5735 61.8493 19.4732 61.4391 19.4732 60.9424C19.4732 60.195 19.7695 59.6208 20.3619 59.2197C20.9544 58.8187 21.8567 58.5999 23.0689 58.5635L24.3609 58.5088V58.0508C24.3609 57.4036 24.2219 56.9502 23.9439 56.6904C23.666 56.4307 23.274 56.3008 22.7682 56.3008C22.3762 56.3008 22.0025 56.3577 21.6471 56.4717C21.2916 56.5856 20.9544 56.7201 20.6354 56.875L20.2867 56.0137C20.624 55.8405 21.0113 55.6924 21.4488 55.5693C21.8863 55.4463 22.3466 55.3848 22.8297 55.3848ZM24.3473 59.3086L23.2057 59.3564C22.2714 59.3929 21.6129 59.5456 21.2301 59.8145C20.8473 60.0833 20.6559 60.4639 20.6559 60.9561C20.6559 61.3844 20.7857 61.7012 21.0455 61.9062C21.3053 62.1113 21.6493 62.2139 22.0777 62.2139C22.7431 62.2139 23.2877 62.0293 23.7115 61.6602C24.1354 61.291 24.3473 60.7373 24.3473 59.999V59.3086ZM30.3262 62.207C30.513 62.207 30.7044 62.1911 30.9004 62.1592C31.0964 62.1273 31.2559 62.0885 31.3789 62.043V62.9248C31.2467 62.984 31.0622 63.0342 30.8252 63.0752C30.5928 63.1162 30.3649 63.1367 30.1416 63.1367C29.7451 63.1367 29.3851 63.0684 29.0615 62.9316C28.738 62.7904 28.4782 62.5534 28.2822 62.2207C28.0908 61.888 27.9951 61.4277 27.9951 60.8398V56.3965H26.9287V55.8428L28.002 55.3984L28.4531 53.7715H29.1367V55.5078H31.3311V56.3965H29.1367V60.8057C29.1367 61.2751 29.2438 61.626 29.458 61.8584C29.6768 62.0908 29.9661 62.207 30.3262 62.207ZM35.8812 55.3711C36.5193 55.3711 37.0661 55.5124 37.5219 55.7949C37.9776 56.0775 38.3262 56.474 38.5678 56.9844C38.8093 57.4902 38.9301 58.0827 38.9301 58.7617V59.4658H33.7553C33.7689 60.3454 33.9877 61.0153 34.4115 61.4756C34.8354 61.9359 35.4324 62.166 36.2025 62.166C36.6765 62.166 37.0958 62.1227 37.4604 62.0361C37.8249 61.9495 38.2032 61.8219 38.5951 61.6533V62.6514C38.2169 62.82 37.8409 62.943 37.4672 63.0205C37.098 63.098 36.6605 63.1367 36.1547 63.1367C35.4346 63.1367 34.8057 62.9909 34.268 62.6992C33.7348 62.403 33.3201 61.9701 33.0238 61.4004C32.7276 60.8307 32.5795 60.1335 32.5795 59.3086C32.5795 58.502 32.7139 57.8047 32.9828 57.2168C33.2562 56.6243 33.6391 56.1686 34.1312 55.8496C34.628 55.5306 35.2113 55.3711 35.8812 55.3711ZM35.8676 56.3008C35.2615 56.3008 34.7784 56.499 34.4184 56.8955C34.0583 57.292 33.8441 57.8457 33.7758 58.5566H37.7406C37.7361 58.11 37.6654 57.7181 37.5287 57.3809C37.3965 57.0391 37.1937 56.7747 36.9203 56.5879C36.6469 56.3965 36.296 56.3008 35.8676 56.3008ZM43.0496 66.3633C42.0652 66.3633 41.3064 66.1787 40.7732 65.8096C40.24 65.445 39.9734 64.9323 39.9734 64.2715C39.9734 63.8021 40.1215 63.401 40.4178 63.0684C40.7186 62.7357 41.1333 62.5146 41.6619 62.4053C41.4659 62.3141 41.2973 62.1774 41.1561 61.9951C41.0193 61.8128 40.951 61.6032 40.951 61.3662C40.951 61.0928 41.0262 60.8535 41.1766 60.6484C41.3315 60.4388 41.5662 60.2383 41.8807 60.0469C41.4887 59.8874 41.1697 59.6185 40.9236 59.2402C40.6821 58.8574 40.5613 58.4131 40.5613 57.9072C40.5613 57.3695 40.673 56.9115 40.8963 56.5332C41.1196 56.1504 41.4432 55.8587 41.867 55.6582C42.2908 55.4577 42.8035 55.3574 43.4051 55.3574C43.5372 55.3574 43.6694 55.3643 43.8016 55.3779C43.9383 55.387 44.0682 55.403 44.1912 55.4258C44.3143 55.444 44.4214 55.4668 44.5125 55.4941H47.0828V56.2256L45.702 56.3965C45.8387 56.5742 45.9526 56.7884 46.0437 57.0391C46.1349 57.2897 46.1805 57.5677 46.1805 57.873C46.1805 58.6204 45.9275 59.2152 45.4217 59.6572C44.9158 60.0947 44.2208 60.3135 43.3367 60.3135C43.1271 60.3135 42.9129 60.2952 42.6941 60.2588C42.4708 60.3818 42.2999 60.5186 42.1814 60.6689C42.0675 60.8193 42.0105 60.9925 42.0105 61.1885C42.0105 61.3343 42.0538 61.4505 42.1404 61.5371C42.2316 61.6237 42.3615 61.6875 42.5301 61.7285C42.6987 61.765 42.9015 61.7832 43.1385 61.7832H44.4578C45.2736 61.7832 45.8979 61.9541 46.3309 62.2959C46.7684 62.6377 46.9871 63.1367 46.9871 63.793C46.9871 64.6224 46.6499 65.2581 45.9754 65.7002C45.3009 66.1423 44.3256 66.3633 43.0496 66.3633ZM43.0838 65.4746C43.7036 65.4746 44.2163 65.4108 44.6219 65.2832C45.032 65.1602 45.3374 64.9801 45.5379 64.7432C45.743 64.5107 45.8455 64.2327 45.8455 63.9092C45.8455 63.6084 45.7771 63.3805 45.6404 63.2256C45.5037 63.0752 45.3032 62.9749 45.0389 62.9248C44.7745 62.8701 44.451 62.8428 44.0682 62.8428H42.7693C42.4321 62.8428 42.1381 62.8952 41.8875 63C41.6368 63.1048 41.4432 63.2598 41.3064 63.4648C41.1743 63.6699 41.1082 63.9251 41.1082 64.2305C41.1082 64.6361 41.2791 64.9437 41.6209 65.1533C41.9627 65.3675 42.4503 65.4746 43.0838 65.4746ZM43.3777 59.4863C43.92 59.4863 44.3279 59.3496 44.6014 59.0762C44.8748 58.8027 45.0115 58.404 45.0115 57.8799C45.0115 57.3193 44.8725 56.9001 44.5945 56.6221C44.3165 56.3395 43.9064 56.1982 43.3641 56.1982C42.8445 56.1982 42.4435 56.3441 42.1609 56.6357C41.8829 56.9229 41.7439 57.3444 41.7439 57.9004C41.7439 58.4108 41.8852 58.8027 42.1678 59.0762C42.4503 59.3496 42.8536 59.4863 43.3777 59.4863ZM55.1193 59.2402C55.1193 59.8555 55.0396 60.4046 54.8801 60.8877C54.7206 61.3708 54.4904 61.7786 54.1896 62.1113C53.8889 62.444 53.5243 62.6992 53.0959 62.877C52.6721 63.0501 52.1913 63.1367 51.6535 63.1367C51.1522 63.1367 50.6919 63.0501 50.2727 62.877C49.8579 62.6992 49.4979 62.444 49.1926 62.1113C48.8918 61.7786 48.6571 61.3708 48.4885 60.8877C48.3244 60.4046 48.2424 59.8555 48.2424 59.2402C48.2424 58.4199 48.3814 57.7227 48.6594 57.1484C48.9374 56.5697 49.3339 56.1299 49.8488 55.8291C50.3684 55.5238 50.9859 55.3711 51.7014 55.3711C52.385 55.3711 52.982 55.5238 53.4924 55.8291C54.0074 56.1344 54.4061 56.5765 54.6887 57.1553C54.9758 57.7295 55.1193 58.4245 55.1193 59.2402ZM49.4182 59.2402C49.4182 59.8418 49.4979 60.3636 49.6574 60.8057C49.8169 61.2477 50.063 61.5895 50.3957 61.8311C50.7284 62.0726 51.1568 62.1934 51.6809 62.1934C52.2004 62.1934 52.6265 62.0726 52.9592 61.8311C53.2964 61.5895 53.5448 61.2477 53.7043 60.8057C53.8638 60.3636 53.9436 59.8418 53.9436 59.2402C53.9436 58.6432 53.8638 58.1283 53.7043 57.6953C53.5448 57.2578 53.2987 56.9206 52.966 56.6836C52.6333 56.4466 52.2027 56.3281 51.674 56.3281C50.8947 56.3281 50.3228 56.5856 49.9582 57.1006C49.5982 57.6156 49.4182 58.3288 49.4182 59.2402ZM60.5855 55.3711C60.7359 55.3711 60.8932 55.3802 61.0572 55.3984C61.2213 55.4121 61.3671 55.4326 61.4947 55.46L61.3512 56.5127C61.2281 56.4808 61.0914 56.4557 60.941 56.4375C60.7906 56.4193 60.6493 56.4102 60.5172 56.4102C60.2164 56.4102 59.9316 56.4717 59.6627 56.5947C59.3984 56.7132 59.1659 56.8864 58.9654 57.1143C58.7649 57.3376 58.6077 57.6087 58.4937 57.9277C58.3798 58.2422 58.3228 58.5931 58.3228 58.9805V63H57.1812V55.5078H58.1246L58.2477 56.8887H58.2955C58.4505 56.6107 58.6373 56.3577 58.8561 56.1299C59.0748 55.8975 59.3277 55.7129 59.6148 55.5762C59.9065 55.4395 60.2301 55.3711 60.5855 55.3711ZM64.1445 55.5078V63H63.0098V55.5078H64.1445ZM63.5908 52.7051C63.7777 52.7051 63.9372 52.7666 64.0693 52.8896C64.2061 53.0081 64.2744 53.195 64.2744 53.4502C64.2744 53.7008 64.2061 53.8877 64.0693 54.0107C63.9372 54.1338 63.7777 54.1953 63.5908 54.1953C63.3949 54.1953 63.2308 54.1338 63.0986 54.0107C62.971 53.8877 62.9072 53.7008 62.9072 53.4502C62.9072 53.195 62.971 53.0081 63.0986 52.8896C63.2308 52.7666 63.3949 52.7051 63.5908 52.7051ZM69.5355 55.3711C70.1736 55.3711 70.7204 55.5124 71.1762 55.7949C71.6319 56.0775 71.9805 56.474 72.2221 56.9844C72.4636 57.4902 72.5844 58.0827 72.5844 58.7617V59.4658H67.4096C67.4232 60.3454 67.642 61.0153 68.0658 61.4756C68.4896 61.9359 69.0867 62.166 69.8568 62.166C70.3308 62.166 70.7501 62.1227 71.1146 62.0361C71.4792 61.9495 71.8575 61.8219 72.2494 61.6533V62.6514C71.8712 62.82 71.4952 62.943 71.1215 63.0205C70.7523 63.098 70.3148 63.1367 69.809 63.1367C69.0889 63.1367 68.46 62.9909 67.9223 62.6992C67.3891 62.403 66.9743 61.9701 66.6781 61.4004C66.3819 60.8307 66.2338 60.1335 66.2338 59.3086C66.2338 58.502 66.3682 57.8047 66.6371 57.2168C66.9105 56.6243 67.2934 56.1686 67.7855 55.8496C68.2823 55.5306 68.8656 55.3711 69.5355 55.3711ZM69.5219 56.3008C68.9158 56.3008 68.4327 56.499 68.0727 56.8955C67.7126 57.292 67.4984 57.8457 67.4301 58.5566H71.3949C71.3904 58.11 71.3197 57.7181 71.183 57.3809C71.0508 57.0391 70.848 56.7747 70.5746 56.5879C70.3012 56.3965 69.9503 56.3008 69.5219 56.3008ZM79.4588 60.9492C79.4588 61.4277 79.338 61.8311 79.0965 62.1592C78.8595 62.4827 78.5177 62.7266 78.0711 62.8906C77.629 63.0547 77.1004 63.1367 76.4852 63.1367C75.9611 63.1367 75.5076 63.0957 75.1248 63.0137C74.742 62.9316 74.407 62.8154 74.1199 62.665V61.6191C74.4253 61.7695 74.7898 61.9062 75.2137 62.0293C75.6375 62.1523 76.0704 62.2139 76.5125 62.2139C77.1596 62.2139 77.629 62.109 77.9207 61.8994C78.2124 61.6898 78.3582 61.4049 78.3582 61.0449C78.3582 60.8398 78.299 60.6598 78.1805 60.5049C78.0665 60.3454 77.8728 60.1927 77.5994 60.0469C77.326 59.8965 76.9477 59.7324 76.4646 59.5547C75.9861 59.3724 75.5714 59.1924 75.2205 59.0146C74.8742 58.8324 74.6053 58.6113 74.4139 58.3516C74.227 58.0918 74.1336 57.7546 74.1336 57.3398C74.1336 56.7064 74.3888 56.221 74.8992 55.8838C75.4142 55.542 76.0887 55.3711 76.9227 55.3711C77.3738 55.3711 77.7954 55.4167 78.1873 55.5078C78.5838 55.5944 78.9529 55.7129 79.2947 55.8633L78.9119 56.7725C78.602 56.6403 78.2716 56.5286 77.9207 56.4375C77.5698 56.3464 77.212 56.3008 76.8475 56.3008C76.3234 56.3008 75.92 56.3874 75.6375 56.5605C75.3595 56.7337 75.2205 56.9707 75.2205 57.2715C75.2205 57.5039 75.2843 57.6953 75.4119 57.8457C75.5441 57.9961 75.7537 58.1374 76.0408 58.2695C76.3279 58.4017 76.7062 58.5566 77.1756 58.7344C77.645 58.9076 78.0506 59.0876 78.3924 59.2744C78.7342 59.4567 78.9962 59.68 79.1785 59.9443C79.3654 60.2041 79.4588 60.5391 79.4588 60.9492Z" fill="#121212"/>
<path d="M43.65 18.94L39.93 25.02C39.52 25.68 40 26.54 40.78 26.54H48.21C48.99 26.54 49.47 25.68 49.06 25.02L45.35 18.94C44.96 18.3 44.04 18.3 43.65 18.94Z" fill="#121212"/>
<path d="M50 37.54C52.4853 37.54 54.5 35.5253 54.5 33.04C54.5 30.5547 52.4853 28.54 50 28.54C47.5147 28.54 45.5 30.5547 45.5 33.04C45.5 35.5253 47.5147 37.54 50 37.54Z" fill="#121212"/>
<path d="M36.5 37.04H42.5C43.05 37.04 43.5 36.59 43.5 36.04V30.04C43.5 29.49 43.05 29.04 42.5 29.04H36.5C35.95 29.04 35.5 29.49 35.5 30.04V36.04C35.5 36.59 35.95 37.04 36.5 37.04Z" fill="#121212"/>
</svg>
