<svg width="64" height="32" viewBox="0 0 64 32" fill="none" xmlns="http://www.w3.org/2000/svg">
<rect width="64" height="32" rx="16" fill="#121212"/>
<path d="M30.65 6.93999L26.93 13.02C26.52 13.68 27 14.54 27.78 14.54H35.21C35.99 14.54 36.47 13.68 36.06 13.02L32.35 6.93999C31.96 6.29999 31.04 6.29999 30.65 6.93999Z" fill="#F2F2F2"/>
<path d="M37 25.54C39.4853 25.54 41.5 23.5253 41.5 21.04C41.5 18.5547 39.4853 16.54 37 16.54C34.5147 16.54 32.5 18.5547 32.5 21.04C32.5 23.5253 34.5147 25.54 37 25.54Z" fill="#F2F2F2"/>
<path d="M23.5 25.04H29.5C30.05 25.04 30.5 24.59 30.5 24.04V18.04C30.5 17.49 30.05 17.04 29.5 17.04H23.5C22.95 17.04 22.5 17.49 22.5 18.04V24.04C22.5 24.59 22.95 25.04 23.5 25.04Z" fill="#F2F2F2"/>
</svg>
