<svg width="90" height="80" viewBox="0 0 90 80" fill="none" xmlns="http://www.w3.org/2000/svg">
<rect x="13" y="12" width="64" height="32" rx="16" fill="#121212"/>
<path d="M43.65 18.94L39.93 25.02C39.52 25.68 40 26.54 40.78 26.54H48.21C48.99 26.54 49.47 25.68 49.06 25.02L45.35 18.94C44.96 18.3 44.04 18.3 43.65 18.94Z" fill="#F2F2F2"/>
<path d="M50 37.54C52.4853 37.54 54.5 35.5253 54.5 33.04C54.5 30.5547 52.4853 28.54 50 28.54C47.5147 28.54 45.5 30.5547 45.5 33.04C45.5 35.5253 47.5147 37.54 50 37.54Z" fill="#F2F2F2"/>
<path d="M36.5 37.04H42.5C43.05 37.04 43.5 36.59 43.5 36.04V30.04C43.5 29.49 43.05 29.04 42.5 29.04H36.5C35.95 29.04 35.5 29.49 35.5 30.04V36.04C35.5 36.59 35.95 37.04 36.5 37.04Z" fill="#F2F2F2"/>
<path d="M14.2463 54.2568C13.7678 54.2568 13.3394 54.3434 12.9611 54.5166C12.5874 54.6898 12.2707 54.9404 12.0109 55.2686C11.7512 55.5921 11.5529 55.9863 11.4162 56.4512C11.2795 56.9115 11.2111 57.431 11.2111 58.0098C11.2111 58.7845 11.3205 59.4521 11.5393 60.0127C11.758 60.5687 12.0907 60.9971 12.5373 61.2979C12.9839 61.5941 13.549 61.7422 14.2326 61.7422C14.6564 61.7422 15.0689 61.7012 15.4699 61.6191C15.871 61.5371 16.2857 61.4255 16.7141 61.2842V62.6787C16.3085 62.8382 15.8983 62.9544 15.4836 63.0273C15.0689 63.1003 14.5904 63.1367 14.048 63.1367C13.0272 63.1367 12.1796 62.9248 11.5051 62.501C10.8352 62.0771 10.3339 61.4801 10.0012 60.71C9.67305 59.9398 9.50898 59.0374 9.50898 58.0029C9.50898 57.2464 9.6138 56.5537 9.82344 55.9248C10.0331 55.2959 10.3384 54.7536 10.7395 54.2979C11.1405 53.8376 11.635 53.4844 12.2229 53.2383C12.8153 52.9876 13.4921 52.8623 14.2531 52.8623C14.7544 52.8623 15.2466 52.9193 15.7297 53.0332C16.2173 53.1426 16.6685 53.2998 17.0832 53.5049L16.509 54.8584C16.1626 54.6943 15.8003 54.5531 15.4221 54.4346C15.0438 54.3161 14.6519 54.2568 14.2463 54.2568ZM21.7633 55.2891C22.7203 55.2891 23.4426 55.501 23.9303 55.9248C24.4225 56.3486 24.6686 57.0094 24.6686 57.9072V63H23.527L23.2193 61.9268H23.1646C22.9505 62.2002 22.7294 62.4258 22.5016 62.6035C22.2737 62.7812 22.0094 62.9134 21.7086 63C21.4124 63.0911 21.0501 63.1367 20.6217 63.1367C20.1705 63.1367 19.7672 63.0547 19.4117 62.8906C19.0562 62.722 18.776 62.4668 18.5709 62.125C18.3658 61.7832 18.2633 61.3503 18.2633 60.8262C18.2633 60.0469 18.5527 59.4613 19.1314 59.0693C19.7148 58.6774 20.5943 58.4609 21.7701 58.4199L23.0826 58.3721V57.9756C23.0826 57.4515 22.9596 57.0778 22.7135 56.8545C22.4719 56.6312 22.1301 56.5195 21.6881 56.5195C21.3098 56.5195 20.943 56.5742 20.5875 56.6836C20.232 56.793 19.8857 56.9274 19.5484 57.0869L19.0289 55.9521C19.398 55.7562 19.8173 55.5967 20.2867 55.4736C20.7607 55.3506 21.2529 55.2891 21.7633 55.2891ZM23.0758 59.3838L22.0982 59.418C21.2962 59.4453 20.7333 59.582 20.4098 59.8281C20.0862 60.0742 19.9244 60.4115 19.9244 60.8398C19.9244 61.2135 20.0361 61.487 20.2594 61.6602C20.4827 61.8288 20.7766 61.9131 21.1412 61.9131C21.6972 61.9131 22.1575 61.7559 22.5221 61.4414C22.8912 61.1224 23.0758 60.6553 23.0758 60.04V59.3838ZM29.834 61.8379C30.0436 61.8379 30.251 61.8197 30.4561 61.7832C30.6611 61.7422 30.848 61.6943 31.0166 61.6396V62.8564C30.8389 62.9339 30.6087 63 30.3262 63.0547C30.0436 63.1094 29.7497 63.1367 29.4443 63.1367C29.016 63.1367 28.6309 63.0661 28.2891 62.9248C27.9473 62.779 27.6761 62.5306 27.4756 62.1797C27.2751 61.8288 27.1748 61.3434 27.1748 60.7236V56.6562H26.1426V55.9385L27.25 55.3711L27.7764 53.751H28.7881V55.4326H30.9551V56.6562H28.7881V60.7031C28.7881 61.0859 28.8838 61.3708 29.0752 61.5576C29.2666 61.7445 29.5195 61.8379 29.834 61.8379ZM35.6693 55.2891C36.3438 55.2891 36.9226 55.4281 37.4057 55.7061C37.8887 55.984 38.2602 56.3783 38.5199 56.8887C38.7797 57.3991 38.9096 58.0098 38.9096 58.7207V59.582H33.8578C33.876 60.3158 34.072 60.8809 34.4457 61.2773C34.824 61.6738 35.3526 61.8721 36.0316 61.8721C36.5147 61.8721 36.9477 61.8265 37.3305 61.7354C37.7178 61.6396 38.1166 61.5007 38.5268 61.3184V62.624C38.1485 62.8018 37.7634 62.9316 37.3715 63.0137C36.9796 63.0957 36.5102 63.1367 35.9633 63.1367C35.2204 63.1367 34.5665 62.9932 34.0014 62.7061C33.4408 62.4144 33.001 61.9814 32.682 61.4072C32.3676 60.833 32.2104 60.1198 32.2104 59.2676C32.2104 58.4199 32.3539 57.6999 32.641 57.1074C32.9281 56.515 33.3314 56.0638 33.851 55.7539C34.3705 55.444 34.9766 55.2891 35.6693 55.2891ZM35.6693 56.499C35.1635 56.499 34.7533 56.6631 34.4389 56.9912C34.129 57.3193 33.9467 57.8001 33.892 58.4336H37.3373C37.3327 58.0553 37.2689 57.7204 37.1459 57.4287C37.0274 57.137 36.8451 56.9092 36.599 56.7451C36.3575 56.5811 36.0476 56.499 35.6693 56.499ZM42.9812 66.3633C41.9559 66.3633 41.1697 66.1787 40.6228 65.8096C40.076 65.4404 39.8025 64.9232 39.8025 64.2578C39.8025 63.793 39.9484 63.3988 40.24 63.0752C40.5317 62.7562 40.9487 62.5352 41.491 62.4121C41.2859 62.321 41.1082 62.1797 40.9578 61.9883C40.812 61.7923 40.7391 61.5758 40.7391 61.3389C40.7391 61.0563 40.8188 60.8148 40.9783 60.6143C41.1378 60.4137 41.3771 60.2201 41.6961 60.0332C41.2996 59.8646 40.9806 59.5911 40.7391 59.2129C40.5021 58.8301 40.3836 58.3812 40.3836 57.8662C40.3836 57.3193 40.4998 56.8545 40.7322 56.4717C40.9646 56.0843 41.3042 55.7904 41.7508 55.5898C42.1974 55.3848 42.7374 55.2822 43.3709 55.2822C43.5076 55.2822 43.6557 55.2913 43.8152 55.3096C43.9793 55.3232 44.1297 55.3415 44.2664 55.3643C44.4077 55.3825 44.5148 55.403 44.5877 55.4258H47.2059V56.3213L45.9207 56.5605C46.0437 56.7337 46.1417 56.932 46.2146 57.1553C46.2876 57.374 46.324 57.6133 46.324 57.873C46.324 58.6569 46.0529 59.2744 45.5105 59.7256C44.9728 60.1722 44.2299 60.3955 43.282 60.3955C43.0542 60.3864 42.8331 60.3682 42.6189 60.3408C42.4549 60.4411 42.3296 60.5527 42.243 60.6758C42.1564 60.7943 42.1131 60.9287 42.1131 61.0791C42.1131 61.2021 42.1564 61.3024 42.243 61.3799C42.3296 61.4528 42.4572 61.5075 42.6258 61.5439C42.799 61.5804 43.0086 61.5986 43.2547 61.5986H44.5603C45.3898 61.5986 46.0232 61.7741 46.4607 62.125C46.8982 62.4759 47.117 62.9909 47.117 63.6699C47.117 64.5312 46.7615 65.1943 46.0506 65.6592C45.3396 66.1286 44.3165 66.3633 42.9812 66.3633ZM43.0428 65.2354C43.6033 65.2354 44.075 65.1807 44.4578 65.0713C44.8406 64.9619 45.13 64.8047 45.326 64.5996C45.5219 64.3991 45.6199 64.1598 45.6199 63.8818C45.6199 63.6357 45.5584 63.4466 45.4353 63.3145C45.3123 63.1823 45.1277 63.0911 44.8816 63.041C44.6355 62.9909 44.3302 62.9658 43.9656 62.9658H42.7762C42.4799 62.9658 42.2179 63.0114 41.99 63.1025C41.7622 63.1982 41.5844 63.335 41.4568 63.5127C41.3338 63.6904 41.2723 63.9046 41.2723 64.1553C41.2723 64.5016 41.4249 64.7682 41.7303 64.9551C42.0402 65.1419 42.4777 65.2354 43.0428 65.2354ZM43.3572 59.3428C43.8266 59.3428 44.1753 59.2152 44.4031 58.96C44.631 58.7002 44.7449 58.3356 44.7449 57.8662C44.7449 57.3558 44.6264 56.973 44.3895 56.7178C44.157 56.4626 43.8107 56.335 43.3504 56.335C42.8992 56.335 42.5551 56.4648 42.3182 56.7246C42.0857 56.9844 41.9695 57.3695 41.9695 57.8799C41.9695 58.3402 42.0857 58.7002 42.3182 58.96C42.5551 59.2152 42.9015 59.3428 43.3572 59.3428ZM55.3859 59.1992C55.3859 59.8281 55.3039 60.3864 55.1398 60.874C54.9758 61.3617 54.7365 61.7741 54.4221 62.1113C54.1076 62.444 53.7294 62.6992 53.2873 62.877C52.8452 63.0501 52.3462 63.1367 51.7902 63.1367C51.2707 63.1367 50.7945 63.0501 50.3615 62.877C49.9286 62.6992 49.5526 62.444 49.2336 62.1113C48.9191 61.7741 48.6753 61.3617 48.5021 60.874C48.329 60.3864 48.2424 59.8281 48.2424 59.1992C48.2424 58.3652 48.3859 57.6589 48.673 57.0801C48.9647 56.4967 49.3794 56.0524 49.9172 55.7471C50.4549 55.4417 51.0952 55.2891 51.8381 55.2891C52.5354 55.2891 53.1506 55.4417 53.6838 55.7471C54.217 56.0524 54.634 56.4967 54.9348 57.0801C55.2355 57.6634 55.3859 58.3698 55.3859 59.1992ZM49.8967 59.1992C49.8967 59.7507 49.9628 60.2223 50.0949 60.6143C50.2316 61.0062 50.4413 61.307 50.7238 61.5166C51.0064 61.7217 51.371 61.8242 51.8176 61.8242C52.2642 61.8242 52.6288 61.7217 52.9113 61.5166C53.1939 61.307 53.4012 61.0062 53.5334 60.6143C53.6656 60.2223 53.7316 59.7507 53.7316 59.1992C53.7316 58.6478 53.6656 58.1807 53.5334 57.7979C53.4012 57.4105 53.1939 57.1165 52.9113 56.916C52.6288 56.7109 52.2619 56.6084 51.8107 56.6084C51.1454 56.6084 50.66 56.8317 50.3547 57.2783C50.0493 57.7249 49.8967 58.3652 49.8967 59.1992ZM61.1666 55.2891C61.2942 55.2891 61.4332 55.2959 61.5836 55.3096C61.734 55.3232 61.8639 55.3415 61.9732 55.3643L61.8228 56.8682C61.7271 56.8408 61.6087 56.8203 61.4674 56.8066C61.3307 56.793 61.2076 56.7861 61.0982 56.7861C60.8111 56.7861 60.5377 56.834 60.2779 56.9297C60.0182 57.0208 59.788 57.1621 59.5875 57.3535C59.387 57.5404 59.2298 57.7751 59.1158 58.0576C59.0019 58.3402 58.9449 58.6683 58.9449 59.042V63H57.3316V55.4326H58.5895L58.8082 56.7656H58.8834C59.0338 56.4967 59.2206 56.2507 59.4439 56.0273C59.6673 55.804 59.9225 55.6263 60.2096 55.4941C60.5012 55.3574 60.8202 55.2891 61.1666 55.2891ZM65.0811 55.4326V63H63.4746V55.4326H65.0811ZM64.2881 52.5342C64.5342 52.5342 64.7461 52.6003 64.9238 52.7324C65.1061 52.8646 65.1973 53.0924 65.1973 53.416C65.1973 53.735 65.1061 53.9629 64.9238 54.0996C64.7461 54.2318 64.5342 54.2979 64.2881 54.2979C64.0329 54.2979 63.8164 54.2318 63.6387 54.0996C63.4655 53.9629 63.3789 53.735 63.3789 53.416C63.3789 53.0924 63.4655 52.8646 63.6387 52.7324C63.8164 52.6003 64.0329 52.5342 64.2881 52.5342ZM70.4994 55.2891C71.1739 55.2891 71.7527 55.4281 72.2357 55.7061C72.7188 55.984 73.0902 56.3783 73.35 56.8887C73.6098 57.3991 73.7396 58.0098 73.7396 58.7207V59.582H68.6879C68.7061 60.3158 68.9021 60.8809 69.2758 61.2773C69.654 61.6738 70.1827 61.8721 70.8617 61.8721C71.3448 61.8721 71.7777 61.8265 72.1605 61.7354C72.5479 61.6396 72.9467 61.5007 73.3568 61.3184V62.624C72.9786 62.8018 72.5935 62.9316 72.2016 63.0137C71.8096 63.0957 71.3402 63.1367 70.7934 63.1367C70.0505 63.1367 69.3965 62.9932 68.8314 62.7061C68.2709 62.4144 67.8311 61.9814 67.5121 61.4072C67.1977 60.833 67.0404 60.1198 67.0404 59.2676C67.0404 58.4199 67.184 57.6999 67.4711 57.1074C67.7582 56.515 68.1615 56.0638 68.6811 55.7539C69.2006 55.444 69.8067 55.2891 70.4994 55.2891ZM70.4994 56.499C69.9936 56.499 69.5834 56.6631 69.2689 56.9912C68.959 57.3193 68.7768 57.8001 68.7221 58.4336H72.1674C72.1628 58.0553 72.099 57.7204 71.976 57.4287C71.8575 57.137 71.6752 56.9092 71.4291 56.7451C71.1876 56.5811 70.8777 56.499 70.4994 56.499ZM80.7371 60.8398C80.7371 61.3366 80.6163 61.7559 80.3748 62.0977C80.1333 62.4395 79.7801 62.6992 79.3152 62.877C78.8549 63.0501 78.2898 63.1367 77.6199 63.1367C77.0913 63.1367 76.6355 63.098 76.2527 63.0205C75.8745 62.9476 75.5167 62.8337 75.1795 62.6787V61.291C75.5395 61.4596 75.9428 61.6055 76.3895 61.7285C76.8406 61.8516 77.2667 61.9131 77.6678 61.9131C78.1964 61.9131 78.577 61.8311 78.8094 61.667C79.0418 61.4984 79.158 61.2751 79.158 60.9971C79.158 60.833 79.1102 60.6872 79.0145 60.5596C78.9233 60.4274 78.7501 60.293 78.4949 60.1562C78.2443 60.015 77.8751 59.8464 77.3875 59.6504C76.909 59.459 76.5057 59.2676 76.1775 59.0762C75.8494 58.8848 75.601 58.6546 75.4324 58.3857C75.2638 58.1123 75.1795 57.7637 75.1795 57.3398C75.1795 56.6699 75.4438 56.1618 75.9725 55.8154C76.5057 55.4645 77.2098 55.2891 78.0848 55.2891C78.5496 55.2891 78.9871 55.3369 79.3973 55.4326C79.812 55.5238 80.2176 55.6582 80.6141 55.8359L80.1082 57.0459C79.7664 56.8955 79.4223 56.7725 79.076 56.6768C78.7342 56.5765 78.3855 56.5264 78.0301 56.5264C77.6154 56.5264 77.2986 56.5902 77.0799 56.7178C76.8657 56.8454 76.7586 57.0277 76.7586 57.2646C76.7586 57.4424 76.811 57.5928 76.9158 57.7158C77.0206 57.8389 77.2006 57.9619 77.4559 58.085C77.7156 58.208 78.0756 58.3607 78.5359 58.543C78.9871 58.7161 79.3768 58.8984 79.7049 59.0898C80.0376 59.2767 80.2928 59.5068 80.4705 59.7803C80.6482 60.0537 80.7371 60.4069 80.7371 60.8398Z" fill="#121212"/>
</svg>
