<svg width="120" height="120" viewBox="0 0 120 120" fill="none" xmlns="http://www.w3.org/2000/svg">
<g id="account_circle">
<path id="Vector" d="M60.0003 10.0002C32.4003 10.0002 10.0003 32.4002 10.0003 60.0002C10.0003 87.6002 32.4003 110 60.0003 110C87.6003 110 110 87.6002 110 60.0002C110 32.4002 87.6003 10.0002 60.0003 10.0002ZM60.0003 25.0002C68.3003 25.0002 75.0003 31.7002 75.0003 40.0002C75.0003 48.3002 68.3003 55.0002 60.0003 55.0002C51.7003 55.0002 45.0003 48.3002 45.0003 40.0002C45.0003 31.7002 51.7003 25.0002 60.0003 25.0002ZM60.0003 96.0002C47.5003 96.0002 36.4503 89.6002 30.0003 79.9002C30.1503 69.9502 50.0003 64.5002 60.0003 64.5002C69.9503 64.5002 89.8503 69.9502 90.0003 79.9002C83.5503 89.6002 72.5003 96.0002 60.0003 96.0002Z" fill="black"/>
</g>
</svg>
