<svg width="64" height="32" viewBox="0 0 64 32" fill="none" xmlns="http://www.w3.org/2000/svg">
<rect width="64" height="32" rx="16" fill="#121212"/>
<path d="M25.8066 3.70294C24.2254 3.70294 22.8166 4.4786 21.7529 5.69268C20.7179 6.90675 20.0566 8.55925 20.0566 10.4478C20.0566 12.3026 20.7179 13.9551 21.7529 15.2029L31.5566 26.7029L41.3604 15.2029C42.3954 13.9889 43.0566 12.3364 43.0566 10.4478C43.0566 8.59297 42.3954 6.94048 41.3604 5.69268C40.3254 4.4786 38.9166 3.70294 37.3066 3.70294C35.7254 3.70294 34.3166 4.4786 33.2529 5.69268C32.2179 6.90675 31.5566 8.55925 31.5566 10.4478C31.5566 8.59297 30.8954 6.94048 29.8604 5.69268C28.8254 4.4786 27.4166 3.70294 25.8066 3.70294Z" fill="white"/>
</svg>
