<svg width="90" height="80" viewBox="0 0 90 80" fill="none" xmlns="http://www.w3.org/2000/svg">
<rect x="13" y="12" width="64" height="32" rx="16" fill="#121212"/>
<path d="M38.8066 15.7029C37.2254 15.7029 35.8166 16.4786 34.7529 17.6927C33.7179 18.9068 33.0566 20.5592 33.0566 22.4478C33.0566 24.3026 33.7179 25.9551 34.7529 27.2029L44.5566 38.7029L54.3604 27.2029C55.3954 25.9889 56.0566 24.3364 56.0566 22.4478C56.0566 20.593 55.3954 18.9405 54.3604 17.6927C53.3254 16.4786 51.9166 15.7029 50.3066 15.7029C48.7254 15.7029 47.3166 16.4786 46.2529 17.6927C45.2179 18.9068 44.5566 20.5592 44.5566 22.4478C44.5566 20.593 43.8954 18.9405 42.8604 17.6927C41.8254 16.4786 40.4166 15.7029 38.8066 15.7029Z" fill="white"/>
<path d="M28.8928 63V53.0059H30.5334V61.6055H34.7785V63H28.8928ZM38.0504 55.4326V63H36.4439V55.4326H38.0504ZM37.2574 52.5342C37.5035 52.5342 37.7154 52.6003 37.8932 52.7324C38.0755 52.8646 38.1666 53.0924 38.1666 53.416C38.1666 53.735 38.0755 53.9629 37.8932 54.0996C37.7154 54.2318 37.5035 54.2979 37.2574 54.2979C37.0022 54.2979 36.7857 54.2318 36.608 54.0996C36.4348 53.9629 36.3482 53.735 36.3482 53.416C36.3482 53.0924 36.4348 52.8646 36.608 52.7324C36.7857 52.6003 37.0022 52.5342 37.2574 52.5342ZM42.0605 52.3633V57.5039C42.0605 57.7363 42.0514 57.9915 42.0332 58.2695C42.015 58.543 41.9967 58.8005 41.9785 59.042H42.0127C42.1312 58.8825 42.2725 58.6956 42.4365 58.4814C42.6051 58.2673 42.7646 58.0804 42.915 57.9209L45.2256 55.4326H47.0713L44.043 58.6865L47.2695 63H45.3828L42.9629 59.6777L42.0605 60.4502V63H40.4541V52.3633H42.0605ZM51.5941 55.2891C52.2686 55.2891 52.8474 55.4281 53.3305 55.7061C53.8135 55.984 54.185 56.3783 54.4447 56.8887C54.7045 57.3991 54.8344 58.0098 54.8344 58.7207V59.582H49.7826C49.8008 60.3158 49.9968 60.8809 50.3705 61.2773C50.7488 61.6738 51.2774 61.8721 51.9564 61.8721C52.4395 61.8721 52.8725 61.8265 53.2553 61.7354C53.6426 61.6396 54.0414 61.5007 54.4516 61.3184V62.624C54.0733 62.8018 53.6882 62.9316 53.2963 63.0137C52.9044 63.0957 52.435 63.1367 51.8881 63.1367C51.1452 63.1367 50.4913 62.9932 49.9262 62.7061C49.3656 62.4144 48.9258 61.9814 48.6068 61.4072C48.2924 60.833 48.1352 60.1198 48.1352 59.2676C48.1352 58.4199 48.2787 57.6999 48.5658 57.1074C48.8529 56.515 49.2562 56.0638 49.7758 55.7539C50.2953 55.444 50.9014 55.2891 51.5941 55.2891ZM51.5941 56.499C51.0883 56.499 50.6781 56.6631 50.3637 56.9912C50.0538 57.3193 49.8715 57.8001 49.8168 58.4336H53.2621C53.2576 58.0553 53.1937 57.7204 53.0707 57.4287C52.9522 57.137 52.7699 56.9092 52.5238 56.7451C52.2823 56.5811 51.9724 56.499 51.5941 56.499ZM61.8318 60.8398C61.8318 61.3366 61.7111 61.7559 61.4695 62.0977C61.228 62.4395 60.8748 62.6992 60.41 62.877C59.9497 63.0501 59.3846 63.1367 58.7146 63.1367C58.186 63.1367 57.7303 63.098 57.3475 63.0205C56.9692 62.9476 56.6115 62.8337 56.2742 62.6787V61.291C56.6342 61.4596 57.0376 61.6055 57.4842 61.7285C57.9353 61.8516 58.3615 61.9131 58.7625 61.9131C59.2911 61.9131 59.6717 61.8311 59.9041 61.667C60.1365 61.4984 60.2527 61.2751 60.2527 60.9971C60.2527 60.833 60.2049 60.6872 60.1092 60.5596C60.018 60.4274 59.8449 60.293 59.5896 60.1562C59.339 60.015 58.9699 59.8464 58.4822 59.6504C58.0037 59.459 57.6004 59.2676 57.2723 59.0762C56.9441 58.8848 56.6958 58.6546 56.5271 58.3857C56.3585 58.1123 56.2742 57.7637 56.2742 57.3398C56.2742 56.6699 56.5385 56.1618 57.0672 55.8154C57.6004 55.4645 58.3045 55.2891 59.1795 55.2891C59.6443 55.2891 60.0818 55.3369 60.492 55.4326C60.9067 55.5238 61.3123 55.6582 61.7088 55.8359L61.2029 57.0459C60.8611 56.8955 60.5171 56.7725 60.1707 56.6768C59.8289 56.5765 59.4803 56.5264 59.1248 56.5264C58.7101 56.5264 58.3934 56.5902 58.1746 56.7178C57.9604 56.8454 57.8533 57.0277 57.8533 57.2646C57.8533 57.4424 57.9057 57.5928 58.0105 57.7158C58.1154 57.8389 58.2954 57.9619 58.5506 58.085C58.8103 58.208 59.1704 58.3607 59.6307 58.543C60.0818 58.7161 60.4715 58.8984 60.7996 59.0898C61.1323 59.2767 61.3875 59.5068 61.5652 59.7803C61.743 60.0537 61.8318 60.4069 61.8318 60.8398Z" fill="#121212"/>
</svg>
